<svg xmlns="http://www.w3.org/2000/svg" viewBox="0 0 841.89 477.45"><defs><style>.cls-1 {fill: #ffb939; }.cls-2 {fill: #b6a0ff;}.cls-3 {fill:#180b00;}</style></defs><path class="cls-1" d="M346.63,437.6c85.07,34.2,190.98-61.84,315.22,22.73,77.2,52.56,179.69-14.19,180.04-224.3,.21-125.12-86.87-230.42-216.5-235.35-147.52-5.61-199.26,100.18-243.56,209.88-20.71,51.28-93.09,203.77-35.2,227.04Z"/><circle class="cls-3" cx="628.33" cy="205.03" r="16.25"/><circle class="cls-3" cx="493.72" cy="171.28" r="16.25"/><path class="cls-3" d="M558.24,237.21c-13.07,0-28.81-4.66-41.32-22.41-1.14-1.62-.75-3.85,.86-4.99,1.61-1.14,3.85-.75,4.99,.86,22.56,32.01,56.35,15.22,57.78,14.49,1.75-.9,3.92-.21,4.82,1.55,.9,1.76,.22,3.91-1.54,4.82-.21,.11-11.31,5.68-25.6,5.68Z"/><g><path class="cls-2" d="M384.02,438.67c-60.88,16.58-67.98-63.27-218.07,27.14C114.09,497.05,10.75,431.37,.52,258.33-7.44,123.85,77.31,13.47,200.26,1.15h0c122.95-12.33,225.06,76.14,248.86,205.61,21.95,119.46-19.67,219.54-65.1,231.91Z"/><circle class="cls-3" cx="205.42" cy="210.55" r="18.84"/><circle class="cls-3" cx="364.65" cy="179.54" r="18.84"/><path class="cls-3" d="M288.55,251.32c-18.75,0-32.81-8.93-33.06-9.09-1.99-1.3-2.55-3.96-1.25-5.95,1.29-1.99,3.95-2.55,5.94-1.26,1.6,1.03,38.56,24.2,70.14-14.23,1.5-1.83,4.21-2.1,6.05-.59,1.83,1.51,2.1,4.22,.59,6.05-16.07,19.56-33.68,25.07-48.4,25.07Z"/></g></svg>